<svg width="430" height="1665" viewBox="0 0 430 1665" fill="none" xmlns="http://www.w3.org/2000/svg">
<mask id="path-1-inside-1_665_483" fill="white">
<path fill-rule="evenodd" clip-rule="evenodd" d="M165.285 26.531C189.604 -7.67242 240.396 -7.67243 264.715 26.5309L415.445 238.527C422.024 247.781 425.58 257.852 426.557 267.88C428.694 270.196 430 273.292 430 276.692V1496.52C430 1496.7 429.996 1496.89 429.988 1497.07C429.996 1497.66 430 1498.24 430 1498.83C430 1590.6 333.741 1665 215 1665C96.2588 1665 0 1590.6 0 1498.83C0 1498.24 0.00391366 1497.66 0.0117219 1497.07C0.00393341 1496.89 0 1496.7 0 1496.52V276.692C0 273.292 1.30544 270.197 3.44248 267.88C4.41921 257.852 7.97523 247.781 14.5545 238.527L165.285 26.531Z"/>
</mask>
<path d="M264.715 26.5309L252.49 35.2229L252.49 35.2229L264.715 26.5309ZM165.285 26.531L153.06 17.839L153.06 17.839L165.285 26.531ZM415.445 238.527L427.67 229.835L427.67 229.835L415.445 238.527ZM426.557 267.88L411.628 269.334L412.116 274.348L415.532 278.051L426.557 267.88ZM429.988 1497.07L415.002 1496.44L414.984 1496.86L414.99 1497.27L429.988 1497.07ZM0.0117219 1497.07L15.0104 1497.27L15.016 1496.86L14.9984 1496.44L0.0117219 1497.07ZM3.44248 267.88L14.4678 278.051L17.8835 274.348L18.3718 269.334L3.44248 267.88ZM14.5545 238.527L26.7794 247.219L26.7794 247.219L14.5545 238.527ZM276.94 17.8389C246.641 -24.7751 183.359 -24.7751 153.06 17.839L177.51 35.223C195.849 9.43024 234.151 9.43024 252.49 35.2229L276.94 17.8389ZM427.67 229.835L276.94 17.8389L252.49 35.2229L403.22 247.219L427.67 229.835ZM441.487 266.425C440.259 253.819 435.784 241.247 427.67 229.835L403.22 247.219C408.265 254.314 410.902 261.884 411.628 269.334L441.487 266.425ZM445 276.692C445 269.376 442.174 262.686 437.582 257.709L415.532 278.051C415.214 277.706 415 277.207 415 276.692H445ZM445 1496.52V276.692H415V1496.52H445ZM444.975 1497.7C444.992 1497.31 445 1496.91 445 1496.52H415C415 1496.49 415.001 1496.47 415.002 1496.44L444.975 1497.7ZM414.99 1497.27C414.997 1497.79 415 1498.31 415 1498.83H445C445 1498.17 444.996 1497.52 444.987 1496.87L414.99 1497.27ZM415 1498.83C415 1578.95 329.28 1650 215 1650V1680C338.203 1680 445 1602.25 445 1498.83H415ZM215 1650C100.72 1650 15 1578.95 15 1498.83H-15C-15 1602.25 91.7974 1680 215 1680V1650ZM15 1498.83C15 1498.31 15.0035 1497.79 15.0104 1497.27L-14.9869 1496.87C-14.9956 1497.52 -15 1498.17 -15 1498.83H15ZM-15 1496.52C-15 1496.91 -14.9916 1497.31 -14.975 1497.7L14.9984 1496.44C14.9995 1496.47 15 1496.49 15 1496.52H-15ZM-15 276.692V1496.52H15V276.692H-15ZM-7.58285 257.709C-12.1748 262.687 -15 269.377 -15 276.692H15C15 277.207 14.7857 277.706 14.4678 278.051L-7.58285 257.709ZM2.32956 229.835C-5.78439 241.247 -10.259 253.819 -11.4869 266.426L18.3718 269.334C19.0974 261.885 21.7348 254.314 26.7794 247.219L2.32956 229.835ZM153.06 17.839L2.32955 229.835L26.7794 247.219L177.51 35.223L153.06 17.839Z" fill="#EFEFEF" mask="url(#path-1-inside-1_665_483)"/>
<rect width="35.84" height="71.8739" transform="matrix(0.820215 0.572056 -0.582442 0.812872 138.862 119.987)" fill="#EFEFEF"/>
<rect width="35.84" height="71.8739" transform="matrix(-0.820215 0.572056 0.582442 0.812872 288.38 119.987)" fill="#EFEFEF"/>
<rect width="35.84" height="76.7255" transform="matrix(0.820215 0.572056 -0.582442 0.812872 184.671 55.9321)" fill="#EFEFEF"/>
<rect width="35.84" height="76.7255" transform="matrix(-0.820215 0.572056 0.582442 0.812872 243.38 55.8579)" fill="#EFEFEF"/>
<path d="M211.308 41.8495L242.438 55.1281L213.339 75.2499L211.308 41.8495Z" fill="#EFEFEF"/>
<path d="M215.98 41.8991L184.789 55.0376L213.795 75.29L215.98 41.8991Z" fill="#EFEFEF"/>
<path d="M209.025 60.9163L217.493 38.9358L185.876 55.3187L209.025 60.9163Z" fill="#EFEFEF"/>
<path d="M216.861 61.2843L208.404 39.3095L239.999 55.6809L216.861 61.2843Z" fill="#EFEFEF"/>
</svg>
