<svg width="1440" height="601" viewBox="0 0 1440 601" fill="none" xmlns="http://www.w3.org/2000/svg">
<g clip-path="url(#clip0_493_191)">
<path fill-rule="evenodd" clip-rule="evenodd" d="M1451 699V355L1386.74 361.341L1346.96 356.585L1299.53 359.756L1224.57 370.853L1158.78 380.365H1117.47L1018.02 375.609L973.652 381.951L897.154 380.365L831.366 370.853L724.269 375.609L660.01 394.633L559.033 397.804L517.724 388.292L430.516 386.707L341.779 393.048L297.41 381.951L205.612 380.365L173.483 372.439L100.045 378.78L37.317 383.536L-3 385.121V699H724.269H1451Z" fill="#D6A5DB"/>
<path fill-rule="evenodd" clip-rule="evenodd" d="M-3 702V374L61.2583 380.121L101.037 375.53L148.466 378.591L223.434 389.302L289.222 398.483H330.531L429.979 393.893L474.348 400.013L550.846 398.483L616.634 389.302L723.731 393.893L787.989 412.255L888.967 415.315L930.276 406.134L1017.48 404.604L1106.22 410.725L1150.59 400.013L1242.39 398.483L1274.52 390.832L1347.95 396.953L1410.68 401.543L1451 403.074V702H714.5H-3Z" fill="#C194CD"/>
<path fill-rule="evenodd" clip-rule="evenodd" d="M-3 697.5V415.382L13.8296 416.912L23.7743 423.033L42.1338 420.738L62.7883 419.973L74.263 425.329L94.1525 426.859L111.747 426.094L131.636 419.973L166.826 422.268L196.66 429.919L226.494 440.63L247.148 451.342L254.033 462.818L269.333 458.993L299.932 450.577L322.117 457.463L342.771 443.691L361.131 430.684L389.435 439.1L412.384 430.684L428.449 416.912L451.398 419.973L472.818 424.563L478.937 410.792L495.767 404.671L514.891 409.262L534.781 411.557L547.786 423.798L573.03 422.268L943.28 446.751L960.11 439.1L981.529 440.63L992.239 432.98L1010.6 418.443L1036.61 425.329L1055.73 436.04L1089.39 439.1L1116.17 434.51L1129.17 443.691L1151.35 423.033L1170.48 424.563L1186.54 419.208L1210.26 417.678L1215.61 424.563L1242.39 428.389L1263.81 426.094L1279.11 437.57L1328.07 433.745L1344.13 425.329L1352.54 412.322L1367.08 400.08L1381.61 380.953L1390.79 374.067L1397.68 362.591L1409.92 358L1421.39 371.007L1433.63 373.302L1451 384.778V697.5H719H-3Z" fill="#F0B9EC"/>
<path fill-rule="evenodd" clip-rule="evenodd" d="M-3 699V415.382L13.8296 416.912L23.7743 423.033L42.1338 420.738L62.7883 419.973L74.263 425.329L94.1525 426.859L111.747 426.094L131.636 419.973L166.826 422.268L196.66 429.919L226.494 440.63L247.148 451.342L254.033 462.818L269.333 458.993L299.932 450.577L322.117 457.463L342.771 443.691L361.131 430.684L389.435 439.1L412.384 430.684L428.449 416.912L451.398 419.973L472.818 424.563L478.937 410.792L495.767 404.671L514.891 409.262L534.781 411.557L547.786 423.798L573.03 422.268L943.28 446.751L960.11 439.1L981.529 440.63L992.239 432.98L1010.6 418.443L1036.61 425.329L1055.73 436.04L1089.39 439.1L1116.17 434.51L1129.17 443.691L1151.35 423.033L1170.48 424.563L1186.54 419.208L1210.26 417.678L1215.61 424.563L1242.39 428.389L1263.81 426.094L1279.11 437.57L1328.07 433.745L1371.72 436.419L1369.31 426.118L1372.49 411.441L1396.76 406.651L1394.85 391.379L1405.79 380.173L1409.92 358L1421.39 371.007L1433.63 373.302L1451 384.778V699H703.5H-3Z" fill="#B78ACA"/>
<path fill-rule="evenodd" clip-rule="evenodd" d="M24 700.5V538.339L79.1741 539.421L115.957 550.241L153.821 548.077L198.177 539.421L262.006 545.913L281.033 554.69L307.043 556.986L353.706 550.1L387.366 517.201L409.55 509.55H446.269L470.748 495.778L515.117 491.187L545.716 477.416L577.846 454.463L591.615 431.51L611.505 434.57L631.394 429.979L649.754 419.268L681.883 396.315L701.772 390.194L727.782 388.664L746.141 362.651L769.091 355L792.04 361.121L804.28 374.893L827.229 382.543L848.366 397.678L858.103 414.99L874.33 417.154L897.049 423.646L902.458 432.302L923.013 436.63L960.878 448.532L973.86 472.336L986.842 478.828L995.497 488.566L1010.64 484.238L1021.46 491.812L1040.93 483.156L1056.08 486.402L1067.98 495.058L1077.72 505.879L1087.45 519.945L1120.99 530.765L1158.86 532.929L1177.25 526.437L1207.54 512.371L1236.75 510.207L1251.89 496.14H1276.78L1293 506.961L1329.79 502.633L1355.75 509.125L1373.06 521.027L1406.6 526.437L1430.4 536.175L1452.04 529.683L1478 530.765V700.5H746.141H24Z" fill="#F3B6EF"/>
<path fill-rule="evenodd" clip-rule="evenodd" d="M24 700.5V538.339L79.1741 539.421L186.779 583.188L178.688 559.291L198.177 539.421L262.006 545.913L305.468 585.025L319.2 578.888L383.78 583.031L528.957 625.585L609.223 629.727L638.609 619.572L630.502 589.734L603.107 570.722L632.686 559.268L638.434 552.042L673.105 543.742L698.148 505.996L717.612 497.743L721.027 461.752L747.878 456.735L737.028 433.674L751.988 428.465L753.602 406.409L778.042 390.735L763.243 387.041L761.418 367.203L769.091 355L792.04 361.121L804.28 374.893L827.229 382.543L848.366 397.678L858.103 414.99L874.33 417.154L897.049 423.646L902.458 432.302L923.013 436.63L960.878 448.532L973.86 472.336L986.842 478.828L995.497 488.566L1010.64 484.238L1028.08 495.19L1040.93 483.156L1056.08 486.402L1067.98 495.058L1077.72 505.879L1087.45 519.945L1120.99 530.765L1158.86 532.929L1183.2 526.978L1207.54 512.371L1250.33 519.579L1257.25 499.966L1276.78 496.14L1293 506.961L1329.79 502.633L1355.75 509.125L1373.06 521.027L1406.6 526.437L1440.3 539.552L1452.04 529.683L1478 530.765V700.5H751.988H24Z" fill="#A87BC3"/>
<path fill-rule="evenodd" clip-rule="evenodd" d="M-7 700.5V471.757H36.2738L70.8929 478.249L117.412 510.709L168.259 504.217L235.333 478.249L314.308 440.378L380.301 447.952L450.621 450.117L567.46 476.085L596.67 499.889L630.207 510.709L692.954 508.545L724.327 516.119L763.274 511.791L828.184 522.611L881.195 516.119L906.077 534.513L919.059 532.349L941.778 521.529L948.269 503.135L970.988 494.479L999.116 491.233L1028.33 496.643L1088.91 487.987L1172.21 483.659L1238.2 494.479L1278.23 491.233L1325.83 504.217L1352.88 517.201L1378.84 537.759L1408.05 559.4L1447 550.743V700.5H724.327H-7Z" fill="#826FBC"/>
<path fill-rule="evenodd" clip-rule="evenodd" d="M-3 701V583.641L46.7649 592.145L135.476 595.547L237.17 578.538L282.607 600.65L330.208 604.051L391.874 564.081L520.613 544.521L581.196 553.026L633.125 564.932L749.964 553.026L821.366 559.829L886.277 578.538L933.878 559.829L990.134 546.222L1068.03 522.41H1132.94L1163.23 503.701L1217.32 502L1288.72 525.812L1355.8 536.017L1451 544.521V701H-3Z" fill="#635F98"/>
<path fill-rule="evenodd" clip-rule="evenodd" d="M-3 701V491L24.0461 497.563L48.9286 507.406L88.9568 516.43H113.839L163.604 523.812L229.597 531.195L255.561 545.961L275.034 560.727L299.917 566.469L349.682 562.367L391.874 568.93L437.311 581.234L469.766 595.18L513.04 600.102L563.887 602.563L598.506 612.406L624.47 614.867L638.534 624.711L701.281 636.195L717.509 649.32L748.882 659.164L784.583 668.188L810.548 677.211L843.003 681.312L868.967 701H984.725H1245.45L1297.38 682.953L1359.04 670.648L1389.33 647.68L1451 632.914V701H-3Z" fill="#3F416B"/>
<path opacity="0.564" d="M1387.6 26.0091C1388.46 26.0091 1389.16 25.312 1389.16 24.4521C1389.16 23.5921 1388.46 22.895 1387.6 22.895C1386.74 22.895 1386.05 23.5921 1386.05 24.4521C1386.05 25.312 1386.74 26.0091 1387.6 26.0091Z" fill="#FFF3F2"/>
<path opacity="0.564" d="M1351.12 55.176C1351.69 55.176 1352.15 54.715 1352.15 54.1463C1352.15 53.5777 1351.69 53.1167 1351.12 53.1167C1350.55 53.1167 1350.09 53.5777 1350.09 54.1463C1350.09 54.715 1350.55 55.176 1351.12 55.176Z" fill="#FFF3F2"/>
<path opacity="0.564" d="M1417.11 110.899C1417.68 110.899 1418.14 110.438 1418.14 109.869C1418.14 109.301 1417.68 108.84 1417.11 108.84C1416.55 108.84 1416.09 109.301 1416.09 109.869C1416.09 110.438 1416.55 110.899 1417.11 110.899Z" fill="#FFF3F2"/>
<path opacity="0.564" d="M1226.71 55.717C1227.28 55.717 1227.74 55.256 1227.74 54.6874C1227.74 54.1187 1227.28 53.6577 1226.71 53.6577C1226.14 53.6577 1225.68 54.1187 1225.68 54.6874C1225.68 55.256 1226.14 55.717 1226.71 55.717Z" fill="#FFF3F2"/>
<path opacity="0.564" d="M1107.98 78.7097C1108.55 78.7097 1109.01 78.2487 1109.01 77.68C1109.01 77.1114 1108.55 76.6504 1107.98 76.6504C1107.41 76.6504 1106.95 77.1114 1106.95 77.68C1106.95 78.2487 1107.41 78.7097 1107.98 78.7097Z" fill="#FFF3F2"/>
<path opacity="0.564" d="M1430.61 15.1893C1431.47 15.1893 1432.16 14.4922 1432.16 13.6322C1432.16 12.7723 1431.47 12.0752 1430.61 12.0752C1429.75 12.0752 1429.05 12.7723 1429.05 13.6322C1429.05 14.4922 1429.75 15.1893 1430.61 15.1893Z" fill="#FFF3F2"/>
<path opacity="0.564" d="M1239.39 18.9764C1240.25 18.9764 1240.95 18.2793 1240.95 17.4193C1240.95 16.5594 1240.25 15.8623 1239.39 15.8623C1238.53 15.8623 1237.83 16.5594 1237.83 17.4193C1237.83 18.2793 1238.53 18.9764 1239.39 18.9764Z" fill="#FFF3F2"/>
<path opacity="0.564" d="M1169.88 38.723C1170.74 38.723 1171.44 38.0259 1171.44 37.1659C1171.44 36.306 1170.74 35.6089 1169.88 35.6089C1169.02 35.6089 1168.33 36.306 1168.33 37.1659C1168.33 38.0259 1169.02 38.723 1169.88 38.723Z" fill="#FFF3F2"/>
<path opacity="0.564" d="M1027.92 38.675C1028.49 38.675 1028.95 38.214 1028.95 37.6454C1028.95 37.0767 1028.49 36.6157 1027.92 36.6157C1027.35 36.6157 1026.89 37.0767 1026.89 37.6454C1026.89 38.214 1027.35 38.675 1027.92 38.675Z" fill="#FFF3F2"/>
<path opacity="0.564" d="M924.605 10.8132C925.173 10.8132 925.634 10.3522 925.634 9.78354C925.634 9.21489 925.173 8.75391 924.605 8.75391C924.036 8.75391 923.575 9.21489 923.575 9.78354C923.575 10.3522 924.036 10.8132 924.605 10.8132Z" fill="#FFF3F2"/>
<path opacity="0.564" d="M819.395 10.2722C819.964 10.2722 820.425 9.81118 820.425 9.24253C820.425 8.67387 819.964 8.21289 819.395 8.21289C818.827 8.21289 818.366 8.67387 818.366 9.24253C818.366 9.81118 818.827 10.2722 819.395 10.2722Z" fill="#FFF3F2"/>
<path opacity="0.564" d="M722.57 45.1672C723.139 45.1672 723.6 44.7062 723.6 44.1375C723.6 43.5689 723.139 43.1079 722.57 43.1079C722.002 43.1079 721.541 43.5689 721.541 44.1375C721.541 44.7062 722.002 45.1672 722.57 45.1672Z" fill="#FFF3F2"/>
<path opacity="0.564" d="M695.795 22.7155C696.363 22.7155 696.824 22.2545 696.824 21.6859C696.824 21.1172 696.363 20.6562 695.795 20.6562C695.226 20.6562 694.765 21.1172 694.765 21.6859C694.765 22.2545 695.226 22.7155 695.795 22.7155Z" fill="#FFF3F2"/>
<path opacity="0.564" d="M563.269 24.3386C563.837 24.3386 564.298 23.8776 564.298 23.3089C564.298 22.7403 563.837 22.2793 563.269 22.2793C562.7 22.2793 562.239 22.7403 562.239 23.3089C562.239 23.8776 562.7 24.3386 563.269 24.3386Z" fill="#FFF3F2"/>
<path opacity="0.564" d="M528.92 35.9699C529.489 35.9699 529.95 35.5089 529.95 34.9403C529.95 34.3716 529.489 33.9106 528.92 33.9106C528.352 33.9106 527.891 34.3716 527.891 34.9403C527.891 35.5089 528.352 35.9699 528.92 35.9699Z" fill="#FFF3F2"/>
<path opacity="0.564" d="M1382.19 106.078C1383.05 106.078 1383.75 105.381 1383.75 104.521C1383.75 103.661 1383.05 102.964 1382.19 102.964C1381.33 102.964 1380.64 103.661 1380.64 104.521C1380.64 105.381 1381.33 106.078 1382.19 106.078Z" fill="#FFF3F2"/>
<path opacity="0.564" d="M1415.19 72.536C1416.05 72.536 1416.75 71.8389 1416.75 70.9789C1416.75 70.119 1416.05 69.4219 1415.19 69.4219C1414.33 69.4219 1413.63 70.119 1413.63 70.9789C1413.63 71.8389 1414.33 72.536 1415.19 72.536Z" fill="#FFF3F2"/>
<path opacity="0.564" d="M1295.11 50.8954C1295.97 50.8954 1296.66 50.1982 1296.66 49.3383C1296.66 48.4784 1295.97 47.7812 1295.11 47.7812C1294.25 47.7812 1293.55 48.4784 1293.55 49.3383C1293.55 50.1982 1294.25 50.8954 1295.11 50.8954Z" fill="#FFF3F2"/>
</g>
<defs>
<clipPath id="clip0_493_191">
<rect width="1454" height="818" fill="white" transform="translate(-7)"/>
</clipPath>
</defs>
</svg>
