<svg width="157" height="171" viewBox="0 0 157 171" fill="none" xmlns="http://www.w3.org/2000/svg">
<g clip-path="url(#clip0_489_100)">
<path d="M136.631 139.761H37.4658V58.4093C37.4658 58.3228 37.5317 58.2563 37.6172 58.2563H136.631V139.761Z" fill="#A590C7"/>
<path d="M90.9819 54.5668C98.2355 54.5668 104.116 48.5187 104.116 41.0581C104.116 33.5974 98.2355 27.5493 90.9819 27.5493C83.7283 27.5493 77.8481 33.5974 77.8481 41.0581C77.8481 48.5187 83.7283 54.5668 90.9819 54.5668Z" fill="#A590C7"/>
<path d="M121.647 30.2152C128.901 30.2152 134.781 24.1672 134.781 16.7065C134.781 9.24583 128.901 3.19775 121.647 3.19775C114.394 3.19775 108.514 9.24583 108.514 16.7065C108.514 24.1672 114.394 30.2152 121.647 30.2152Z" fill="#A590C7"/>
<path d="M156.802 39.5289C148.185 41.1909 146.71 43.0923 145.426 54.2077C145.387 54.5401 145.018 54.5401 144.979 54.2077C143.695 43.0856 142.22 41.1843 133.603 39.5289C133.346 39.4824 133.346 39.0037 133.603 38.9506C142.22 37.2886 143.695 35.3872 144.979 24.2718C145.018 23.9394 145.387 23.9394 145.426 24.2718C146.71 35.3939 148.185 37.2952 156.802 38.9506C157.059 38.9971 157.059 39.4757 156.802 39.5289Z" fill="#A590C7"/>
<path d="M17.9528 109.998C11.9751 111.148 10.9547 112.464 10.0593 120.183C10.033 120.415 9.77624 120.415 9.74991 120.183C8.85457 112.471 7.83415 111.148 1.85646 109.998C1.67871 109.965 1.67871 109.632 1.85646 109.599C7.83415 108.449 8.85457 107.133 9.74991 99.4143C9.77624 99.1816 10.033 99.1816 10.0593 99.4143C10.9547 107.126 11.9751 108.449 17.9528 109.599C18.1305 109.632 18.1305 109.965 17.9528 109.998Z" fill="#A590C7"/>
<path d="M98.3161 14.6788C94.6228 15.3902 93.9908 16.2079 93.4378 20.9745C93.418 21.1141 93.2601 21.1141 93.2469 20.9745C92.6939 16.2079 92.0619 15.3902 88.3686 14.6788C88.2567 14.6589 88.2567 14.4528 88.3686 14.4328C92.0619 13.7215 92.6939 12.9038 93.2469 8.13718C93.2666 7.99757 93.4246 7.99757 93.4378 8.13718C93.9908 12.9038 94.6228 13.7215 98.3161 14.4328C98.428 14.4528 98.428 14.6589 98.3161 14.6788Z" fill="#A590C7"/>
<path d="M146.848 112.797H110.442C102.694 112.797 96.4131 106.454 96.4131 98.6298C96.4131 90.8051 102.694 84.4629 110.442 84.4629H146.848V112.797Z" fill="white"/>
<path d="M104.906 98.9024C104.906 96.4559 106.953 94.395 109.369 94.395C111.792 94.395 113.833 96.4625 113.833 98.9024C113.833 101.349 111.785 103.41 109.369 103.41C106.947 103.41 104.906 101.349 104.906 98.9024Z" fill="#652F71"/>
<path d="M147.441 82.2292L138.975 82.2226V57.7845C138.975 56.681 138.086 55.7901 137 55.7901H128.797V44.5683C128.797 42.7733 128.152 41.0914 127.026 39.9546C125.9 38.8178 124.235 38.1663 122.464 38.1663H102.226C102.536 38.4787 102.806 38.8444 103.023 39.2964C103.497 40.3069 103.471 41.2775 103.135 42.1617H122.464C123.003 42.1617 123.695 42.2282 124.215 42.76C124.643 43.1922 124.847 43.7905 124.847 44.5749V55.7968H38.111C36.2414 55.7968 34.5165 55.0721 33.2525 53.7558C31.9819 52.4395 31.3104 50.6712 31.3631 48.7765C31.4619 45.1334 34.556 42.1617 38.2625 42.1617H73.9838C73.6151 41.1379 73.569 39.9014 73.8653 38.625C73.9048 38.4654 73.9509 38.3125 74.0101 38.1729H38.111C32.3967 38.1729 27.604 42.8465 27.4131 48.597V139.668C27.4131 139.881 27.4131 140.439 27.7225 140.984C27.9924 141.456 28.5849 142.028 29.8753 142.028H137C138.093 142.028 138.975 141.131 138.975 140.034V115.596H147.178C148.159 115.596 149.153 114.592 149.153 113.601V84.217C149.159 83.273 148.363 82.3622 147.441 82.2292ZM135.025 138.026H31.3631V57.7646L33.6804 58.8216C35.0498 59.4465 36.5837 59.7789 38.1176 59.7789H135.025V82.2226H110.824C106.341 82.2226 102.147 84.0109 99.0071 87.2551C95.8735 90.4994 94.2013 94.774 94.3066 99.3013C94.5173 108.276 102.062 115.582 111.127 115.582H135.018V138.026H135.025ZM145.203 111.593H110.824C107.401 111.593 104.215 110.277 101.864 107.884C99.5141 105.491 98.2303 102.26 98.2566 98.7961C98.3093 91.8556 104.05 86.2114 111.048 86.2114H145.203V111.593Z" fill="#652F71"/>
<path d="M26.537 134.596L13.9826 130.441C12.5803 129.975 11.1188 130.135 9.90088 130.766L25.4639 135.918L26.537 134.596Z" fill="#A590C7"/>
<path d="M29.4539 137.235L30.5335 135.912L26.5374 134.595L25.4644 135.912L29.4539 137.235Z" fill="#A590C7"/>
<path d="M62.7391 102.565L63.8517 101.196C64.2994 100.644 64.8392 100.212 65.4251 99.8863C63.832 99.0087 61.9162 99.0353 60.356 99.8863C60.6456 100.046 60.9287 100.232 61.1986 100.458C61.8965 101.043 62.4165 101.774 62.7391 102.565Z" fill="white"/>
<path d="M28.6045 148.244L29.5986 148.576C30.145 148.756 30.698 148.842 31.251 148.842C32.0937 148.842 32.9232 148.629 33.6671 148.244L30.1121 147.067C29.6842 147.559 29.1707 147.951 28.6045 148.244Z" fill="#A590C7"/>
<path d="M9.90122 130.766L8.91371 130.441C7.51146 129.975 6.04995 130.135 4.83203 130.766L8.38705 131.943C8.82155 131.458 9.33505 131.059 9.90122 130.766Z" fill="#A590C7"/>
<path d="M30.1186 147.067L10.6714 140.632C7.8866 139.708 6.36584 136.676 7.28093 133.864C7.51793 133.126 7.90635 132.481 8.39352 131.943L4.8385 130.766C3.64033 131.391 2.66599 132.468 2.21833 133.864C1.30324 136.676 2.824 139.708 5.60876 140.632L28.6044 148.244C29.1706 147.951 29.6841 147.559 30.1186 147.067Z" fill="white"/>
<path d="M8.38672 131.943L24.3843 137.235L25.4574 135.912L9.89431 130.76C9.33472 131.059 8.82122 131.458 8.38672 131.943Z" fill="#A590C7"/>
<path d="M62.4692 99.4675C59.4935 99.9395 57.5646 102.127 56.1294 104.62C54.9905 104.932 53.9766 105.743 53.5026 107.179C52.6073 109.885 51.5079 114.027 49.2564 115.955C48.045 116.992 46.6494 117.404 45.5763 118.687C45.0035 119.378 44.6019 120.289 44.1411 121.113C43.4367 121.546 42.7652 122.051 42.1134 122.622C41.2181 123.407 40.8889 124.57 41.0074 125.707C40.2437 126.512 39.4735 127.303 38.7032 128.094C37.9001 128.599 37.2286 129.31 36.7414 130.288C36.4649 130.846 36.3266 131.411 36.3069 131.963C34.7466 133.838 33.0416 135.506 30.9217 136.949C30.4938 137.241 30.0988 137.574 29.7433 137.926C29.6511 137.9 29.5524 137.88 29.4536 137.86C22.2843 136.61 15.2401 134.576 8.57778 131.604C6.65544 130.746 4.40393 131.039 3.25842 133.013C2.29067 134.682 2.72517 137.521 4.65409 138.385C10.8622 141.15 17.2481 143.304 23.8578 144.734C24.7136 145.844 26.05 146.555 27.5774 146.203C28.0843 146.389 28.5714 146.702 29.0652 146.908C30.112 147.353 31.1126 147.579 32.2581 147.592C34.9639 147.626 36.353 145.179 35.9777 142.965C36.2871 142.766 36.6031 142.566 36.8994 142.347C38.0712 141.476 39.1707 140.532 40.1779 139.469C42.0542 137.494 43.6473 135.24 45.2339 133.027C45.4446 132.734 45.5894 132.415 45.6882 132.089C47.5315 130.161 49.3617 128.213 51.1524 126.232C51.9621 125.335 52.265 124.231 52.1794 123.188C52.7785 122.822 53.4829 122.529 53.9898 122.131C55.2604 121.133 56.3006 119.844 57.1827 118.408C57.5975 118.434 58.0452 118.388 58.5126 118.255C61.1525 117.517 63.0156 114.784 64.4837 112.591C66.0242 110.277 67.6239 107.246 67.9729 104.447C68.4008 101.136 65.616 98.9689 62.4692 99.4675Z" fill="#A590C7"/>
<path d="M31.2511 150.803C30.4809 150.803 29.7238 150.684 28.993 150.438L5.00325 142.5C1.19807 141.244 -0.882275 137.089 0.36198 133.246C1.60624 129.403 5.71425 127.303 9.52602 128.559L28.8021 134.935L57.2883 99.9395C58.5194 98.4237 60.264 97.4864 62.1929 97.3002C64.1284 97.1074 66.0113 97.6925 67.5123 98.9356C70.6064 101.502 71.0541 106.135 68.5129 109.253L36.8667 148.131C35.4776 149.833 33.4368 150.803 31.2511 150.803ZM7.26793 132.136C5.8525 132.136 4.53583 133.047 4.06841 134.476C3.48908 136.258 4.45683 138.179 6.21459 138.757L30.2044 146.695C30.5467 146.808 30.8956 146.861 31.2511 146.861C32.2584 146.861 33.2064 146.409 33.8515 145.618L65.4846 106.747C66.663 105.298 66.4523 103.157 65.0238 101.967C64.3325 101.389 63.4503 101.123 62.5616 101.209C61.6662 101.296 60.8631 101.734 60.2903 102.432L30.9614 138.471C30.4479 139.096 29.6119 139.342 28.8482 139.09L8.3081 132.295C7.96576 132.196 7.61026 132.136 7.26793 132.136Z" fill="#652F71"/>
<path d="M119.501 33.4129C110.376 33.4129 102.957 25.9206 102.957 16.7064C102.957 7.4923 110.376 0 119.501 0C128.626 0 136.045 7.4923 136.045 16.7064C136.045 25.9139 128.619 33.4129 119.501 33.4129ZM119.501 3.19769C112.121 3.19769 106.124 9.26067 106.124 16.7064C106.124 24.1589 112.128 30.2152 119.501 30.2152C126.881 30.2152 132.878 24.1522 132.878 16.7064C132.878 9.25402 126.874 3.19769 119.501 3.19769Z" fill="#652F71"/>
<path d="M88.2828 57.7644C79.1582 57.7644 71.7388 50.2721 71.7388 41.058C71.7388 31.8439 79.1582 24.3516 88.2828 24.3516C97.4073 24.3516 104.827 31.8439 104.827 41.058C104.827 50.2655 97.4073 57.7644 88.2828 57.7644ZM88.2828 27.5493C80.9028 27.5493 74.9054 33.6122 74.9054 41.058C74.9054 48.5104 80.9094 54.5667 88.2828 54.5667C95.6561 54.5667 101.66 48.5038 101.66 41.058C101.66 33.6056 95.6561 27.5493 88.2828 27.5493Z" fill="#652F71"/>
<path d="M26.7288 170.568C26.3799 170.867 25.9125 171.033 25.4253 170.993C24.4378 170.914 23.7005 170.036 23.7861 169.039L24.7736 158.249C24.8526 157.252 25.7216 156.507 26.7091 156.594C27.6966 156.674 28.4339 157.551 28.3483 158.548L27.3608 169.338C27.3147 169.83 27.0777 170.269 26.7288 170.568Z" fill="#A590C7"/>
<path d="M18.7759 156.673L11.2577 165.735C10.6125 166.499 9.48677 166.586 8.72968 165.941C7.97259 165.296 7.88701 164.152 8.5256 163.388L16.0438 154.327C16.689 153.562 17.8147 153.476 18.5718 154.121C19.3289 154.772 19.4145 155.916 18.7759 156.673Z" fill="#A590C7"/>
</g>
<defs>
<clipPath id="clip0_489_100">
<rect width="157" height="171" fill="white"/>
</clipPath>
</defs>
</svg>
