<svg width="162" height="160" viewBox="0 0 162 160" fill="none" xmlns="http://www.w3.org/2000/svg">
<g clip-path="url(#clip0_489_45)">
<path d="M15.3543 58.0786L31.9363 62.3372L18.8724 109.588L1.95068 104.852L15.3543 58.0786Z" fill="#A590C7"/>
<path d="M71.6216 14.4553C71.6216 14.4553 71.6216 14.4608 71.6216 14.4662C71.8024 14.4443 71.9833 14.4223 72.1641 14.4004C71.9778 14.4169 71.7969 14.4388 71.6216 14.4553Z" fill="#86C3EE"/>
<path d="M144.087 19.9705C143.281 19.8059 141.533 19.1473 140.738 18.9607C138.777 18.5052 136.727 17.8247 134.886 17.051C123.762 12.3533 115.986 8.43493 107.284 1.92627C96.3792 8.39652 82.2961 14.4936 69.1445 15.7832C68.9637 15.8052 68.7829 15.8271 68.602 15.8491C68.5582 16.0796 67.3033 22.5334 67.1115 25.9304C65.7416 50.7358 80.959 72.0234 102.034 82.1156C102.665 82.4175 102.089 83.5096 102.73 83.7894C125.285 76.3643 143.002 56.8657 144.393 31.6927C144.585 28.2518 144.087 19.9705 144.087 19.9705Z" fill="#A590C7"/>
<path d="M138.218 23.6201C127.894 20.8048 116.879 16.7986 109.339 9.9332C108.687 9.34051 107.679 9.36795 106.906 9.79601C97.5521 15.004 85.5787 20.0913 75.0246 21.7487C74.0382 21.9023 74.1862 22.7475 74.0437 23.7353C73.8464 25.0743 73.682 26.364 73.6327 27.297C73.0245 38.2618 76.5863 47.3114 82.4498 56.542C87.6775 64.7739 94.9602 71.288 103.624 75.5137C104.166 75.7772 104.796 75.8156 105.366 75.6125C114.446 72.3692 122.398 66.7001 128.502 59.0994C135.346 50.5712 138.87 40.649 139.473 29.6842C139.522 28.7622 139.522 27.4781 139.489 26.139C139.467 25.1292 139.193 23.8835 138.218 23.6201Z" fill="white"/>
<path d="M125.269 61.9805C125.071 61.9695 124.88 61.8927 124.721 61.7555C124.348 61.4262 124.315 60.8555 124.644 60.4823C125.214 59.8402 125.778 59.1762 126.315 58.5067C132.951 50.2364 136.771 40.2484 137.357 29.6183C137.412 28.6524 137.406 27.1323 137.346 25.1896C126.491 22.3578 115.986 17.3913 106.889 10.7838C105.739 11.4424 104.56 12.079 103.382 12.6826C102.938 12.9076 102.396 12.732 102.171 12.293C101.946 11.8485 102.122 11.3052 102.56 11.0802C103.886 10.3997 105.212 9.68075 106.5 8.93439C106.813 8.75329 107.196 8.77524 107.481 8.98927C116.682 15.7668 127.389 20.8212 138.442 23.6145C138.831 23.7133 139.105 24.0536 139.122 24.4542C139.204 26.803 139.215 28.5756 139.154 29.7171C138.546 40.7258 134.59 51.076 127.718 59.6372C127.159 60.3287 126.578 61.0201 125.992 61.6842C125.8 61.8927 125.532 61.997 125.269 61.9805Z" fill="#652F71" stroke="#652F71" stroke-width="2" stroke-miterlimit="10"/>
<path d="M102.982 77.0887C102.867 77.0832 102.752 77.0558 102.648 77.0064C93.4803 72.7368 85.7428 65.9373 80.2794 57.3322C74.3228 47.9589 71.5007 37.1148 72.1199 25.9798C72.1857 24.8164 72.4158 23.0328 72.7994 20.6675C72.8652 20.2724 73.1775 19.965 73.5721 19.9102C79.7807 19.0541 85.94 17.5284 91.8747 15.3772C92.3459 15.207 92.872 15.4485 93.0419 15.9259C93.2117 16.3979 92.9706 16.9247 92.4939 17.0949C86.6524 19.2132 80.5972 20.7334 74.4872 21.6279C74.1803 23.5761 73.9885 25.1072 73.9337 26.0841C73.3419 36.8349 76.0654 47.3058 81.8137 56.3554C87.025 64.5598 94.3735 71.0685 103.081 75.2008C105.706 74.2953 108.259 73.1758 110.692 71.8642C111.136 71.6227 111.69 71.7929 111.925 72.2319C112.166 72.6764 111.997 73.2307 111.558 73.4667C108.933 74.8825 106.161 76.0899 103.322 77.0448C103.212 77.0777 103.097 77.0942 102.982 77.0887Z" fill="#652F71" stroke="#652F71" stroke-width="2" stroke-miterlimit="10"/>
<path d="M94.5162 59.917C94.3956 60.0267 94.2367 60.0981 94.0669 60.0871C93.7216 60.0706 93.4586 59.7688 93.4696 59.4121L93.623 55.7187C93.6394 55.362 93.9299 55.0821 94.2751 55.0986C94.6203 55.1151 94.8834 55.4169 94.8724 55.7736L94.719 59.467C94.7135 59.6426 94.6368 59.8017 94.5162 59.917Z" fill="#A590C7"/>
<path d="M92.0612 54.7309L88.8829 57.4914C88.6199 57.7218 88.2253 57.6889 88.0061 57.4145C87.7869 57.1401 87.8198 56.7285 88.0829 56.498L91.2611 53.7376C91.5242 53.5071 91.9187 53.5401 92.1379 53.8145C92.3626 54.0888 92.3242 54.5004 92.0612 54.7309Z" fill="#A590C7"/>
<path d="M118.496 28.9322C118.194 28.9761 117.915 28.7566 117.871 28.4492L117.367 24.6626C117.328 24.3553 117.537 24.0699 117.844 24.0315C118.145 23.9876 118.424 24.2071 118.468 24.5144L118.972 28.3011C119.011 28.6084 118.797 28.8883 118.496 28.9322Z" fill="#F6A0A2"/>
<path d="M121.631 29.5138C121.494 29.5468 121.34 29.5248 121.214 29.4425C120.957 29.2779 120.874 28.9321 121.033 28.6687L123 25.4418C123.159 25.1784 123.505 25.0961 123.762 25.2607C124.02 25.4254 124.102 25.7711 123.943 26.0345L121.976 29.2614C121.894 29.3931 121.768 29.4754 121.631 29.5138Z" fill="#F6A0A2"/>
<path d="M101.114 47.6132L95.1191 45.2699C94.4505 45.0065 93.7381 45.0449 93.1299 45.3193L100.555 48.2224L101.114 47.6132Z" fill="#A590C7"/>
<path d="M102.456 48.9686L103.015 48.3594L101.114 47.613L100.555 48.2222L102.456 48.9686Z" fill="#A590C7"/>
<path d="M119.559 33.1525L120.14 32.5214C120.37 32.269 120.644 32.0714 120.94 31.9342C120.189 31.4677 119.257 31.4293 118.474 31.797C118.611 31.8848 118.742 31.9781 118.868 32.0933C119.197 32.3897 119.427 32.7574 119.559 33.1525Z" fill="white"/>
<path d="M101.75 54.2535L102.226 54.4401C102.484 54.5389 102.752 54.5993 103.021 54.6157C103.432 54.6377 103.837 54.5609 104.21 54.3962L102.517 53.7322C102.292 53.9517 102.034 54.1273 101.75 54.2535Z" fill="#A590C7"/>
<path d="M93.124 45.3193L92.6528 45.1327C91.9842 44.8692 91.2718 44.9077 90.6636 45.1821L92.3568 45.8461C92.5815 45.6266 92.8445 45.4455 93.124 45.3193Z" fill="#A590C7"/>
<path d="M102.522 53.7268L93.2392 50.0993C91.9077 49.5779 91.2501 48.0797 91.7707 46.7462C91.9077 46.395 92.1104 46.0931 92.3625 45.8462L90.6692 45.1821C90.0664 45.451 89.5678 45.9449 89.3102 46.6035C88.7896 47.9371 89.4472 49.4353 90.7788 49.9566L101.755 54.2427C102.034 54.1274 102.292 53.9518 102.522 53.7268Z" fill="white"/>
<path d="M92.3569 45.8459L99.9958 48.8314L100.555 48.2222L93.1296 45.3191C92.8446 45.4453 92.5816 45.6264 92.3569 45.8459Z" fill="#A590C7"/>
<path d="M119.515 31.6488C118.057 31.797 117.06 32.7958 116.293 33.9647C115.734 34.0855 115.219 34.4477 114.95 35.1282C114.441 36.4069 113.794 38.377 112.654 39.2441C112.035 39.7106 111.344 39.8697 110.796 40.4624C110.501 40.7807 110.281 41.2088 110.035 41.5929C109.684 41.785 109.344 42.0045 109.01 42.2679C108.555 42.6192 108.363 43.1735 108.391 43.7277C107.996 44.0954 107.602 44.4576 107.207 44.8198C106.802 45.0393 106.456 45.3631 106.193 45.8241C106.045 46.0875 105.963 46.3564 105.936 46.6199C105.125 47.4815 104.254 48.2388 103.185 48.8809C102.971 49.0126 102.769 49.1608 102.588 49.3199C102.544 49.3034 102.495 49.2925 102.451 49.2815C98.9984 48.4858 95.6283 47.3168 92.472 45.7034C91.5623 45.2369 90.4554 45.3192 89.8471 46.2412C89.332 47.0205 89.469 48.4034 90.3842 48.8699C93.3268 50.3736 96.3736 51.5809 99.5519 52.448C99.9355 53.0078 100.571 53.3865 101.322 53.2547C101.563 53.359 101.793 53.5182 102.023 53.6334C102.522 53.8749 102.999 54.0121 103.558 54.0505C104.873 54.1383 105.613 52.9968 105.492 51.9212C105.645 51.8334 105.804 51.7456 105.958 51.6468C106.55 51.2571 107.109 50.8291 107.629 50.3461C108.594 49.4406 109.427 48.4034 110.259 47.3772C110.369 47.24 110.451 47.0918 110.506 46.9382C111.454 46.0601 112.397 45.1711 113.317 44.2601C113.734 43.8485 113.909 43.3271 113.898 42.8167C114.199 42.6576 114.55 42.5369 114.808 42.3558C115.449 41.9112 115.991 41.3185 116.457 40.649C116.66 40.671 116.874 40.66 117.109 40.6106C118.413 40.3252 119.394 39.0575 120.161 38.0423C120.973 36.9721 121.827 35.5507 122.074 34.2117C122.353 32.6092 121.055 31.4897 119.515 31.6488Z" fill="#A590C7"/>
<path d="M102.971 55.5597C102.599 55.5377 102.232 55.4609 101.881 55.3237L90.428 50.8511C88.6142 50.1431 87.71 48.0852 88.4169 46.2687C89.1238 44.4522 91.1787 43.5467 92.9925 44.2546L102.193 47.8492L116.972 31.7422C117.613 31.0452 118.485 30.6391 119.427 30.6007C120.375 30.5623 121.274 30.8915 121.97 31.5336C123.406 32.8562 123.499 35.1008 122.178 36.5386L105.761 54.4292C105.048 55.203 104.029 55.6146 102.971 55.5597ZM91.8089 45.9119C91.1184 45.8735 90.4554 46.2741 90.1923 46.9546C89.8636 47.7943 90.28 48.7492 91.1239 49.0785L102.577 53.5511C102.741 53.6115 102.911 53.6499 103.081 53.6609C103.574 53.6883 104.045 53.4962 104.38 53.134L120.797 35.2434C121.411 34.5794 121.367 33.5367 120.699 32.9275C120.375 32.6312 119.959 32.4775 119.52 32.494C119.082 32.5105 118.682 32.7025 118.386 33.0208L103.158 49.6108C102.895 49.9017 102.478 49.9949 102.116 49.8523L92.313 46.0217C92.1432 45.9558 91.9733 45.9229 91.8089 45.9119Z" fill="#652F71"/>
<path d="M102.747 84.0693C102.637 84.0638 102.533 84.0364 102.434 83.998C91.0802 79.207 81.5617 71.1453 74.9202 60.6853C68.1307 49.9949 64.914 37.6416 65.6154 24.9481C65.8072 21.4633 67.0676 14.9985 67.1224 14.7241C67.2046 14.3125 67.5443 14.0052 67.9608 13.9668C81.6932 12.7046 95.1243 8.12215 106.802 0.702501C107.142 0.488473 107.585 0.510425 107.898 0.762868C118.72 9.45572 131.614 15.5089 145.177 18.2638C145.593 18.3461 145.906 18.7028 145.933 19.1309C145.95 19.4108 146.361 25.9633 146.169 29.4098C145.467 42.0978 140.908 54.0285 132.984 63.9013C125.23 73.5655 114.885 80.5241 103.07 84.0309C102.96 84.0638 102.851 84.0748 102.747 84.0693ZM68.8376 15.7778C68.5033 17.5559 67.643 22.3413 67.495 25.0524C66.1415 49.5778 80.3342 72.4679 102.851 82.1266C126.294 75.0198 142.925 53.8364 144.284 29.311C144.432 26.6274 144.191 21.7925 144.092 19.9705C130.716 17.1333 118.003 11.1625 107.246 2.6562C95.6503 9.89475 82.4001 14.4223 68.8376 15.7778Z" fill="#652F71" stroke="#652F71" stroke-width="1.5" stroke-miterlimit="10"/>
<path d="M113.542 61.3604L130.245 58.0786C130.245 58.0786 144.667 104.111 143.588 104.111C142.508 104.111 127.094 109.588 127.094 109.588L113.542 61.3604Z" fill="#A590C7"/>
<path d="M114.561 65.2841C114.561 65.2841 102.215 67.0567 97.4861 65.2841C92.757 63.5115 78.1807 60.1529 72.8214 59.9883C67.4621 59.8236 58.5903 59.6535 54.4804 63.9286C54.4804 63.9286 37.5149 65.0207 32.8022 65.1853C28.0896 65.3499 20.7192 106.29 20.7192 106.29L32.8022 113.589C32.8022 113.589 33.0324 117.589 31.9419 119.071C30.8514 120.553 32.9831 128.351 37.5971 126.908C42.2166 125.465 41.2631 136.775 49.5431 135.123C49.5431 135.123 51.7953 133.691 51.8775 137.187C51.9597 140.683 56.4312 144.332 61.0069 142.192C61.0069 142.192 61.0946 151.082 68.6293 147.729C68.6293 147.729 72.4816 142.949 72.6515 143.201C72.8214 143.454 78.7341 150.22 82.8385 146.384C86.9429 142.548 83.8797 139.596 83.8797 139.596C83.8797 139.596 88.4663 141.006 92.0062 138.196C95.5462 135.392 93.8475 132.127 93.8475 132.127C93.8475 132.127 101.892 136.654 103.399 132.966C104.906 129.273 103.481 122.984 103.481 122.984C103.481 122.984 110.128 126.59 113.547 123.236C116.967 119.883 114.567 112.497 114.567 112.497L125.68 106.707L114.561 65.2841Z" fill="white"/>
<path d="M33.3555 117.238C32.6048 117.238 31.9033 116.75 31.6732 115.987C29.7388 109.588 19.6943 108.754 19.5902 108.748C19.0641 108.71 18.5819 108.436 18.2805 108.002C17.9791 107.569 17.886 107.025 18.0339 106.515C24.8947 82.3242 29.695 64.9549 29.7388 64.7848C29.9909 63.8683 30.9279 63.3195 31.8485 63.5446C39.9642 65.5202 54.8474 61.4701 54.9953 61.4262C55.9324 61.1683 56.8968 61.7171 57.1544 62.6555C57.4119 63.5939 56.8639 64.5598 55.9269 64.8177C55.3186 64.9879 41.7889 68.6703 32.6924 67.2873C31.4047 71.9246 27.3661 86.4511 21.9629 105.538C25.6509 106.224 33.0431 108.397 35.0323 114.972C35.3118 115.899 34.7912 116.882 33.8596 117.167C33.6952 117.216 33.5254 117.238 33.3555 117.238Z" fill="#652F71"/>
<path d="M46.5293 136.989C44.8908 136.989 43.4003 136.424 42.107 135.304C38.7753 132.434 38.6602 128.044 41.8057 123.851C44.2551 120.591 46.1566 118.978 46.5841 118.632C47.0827 118.166 49.4281 116.135 52.4968 116.135C53.927 116.135 55.2805 116.58 56.508 117.452C58.3657 118.775 59.4178 120.553 59.5438 122.605C59.7521 126.046 57.3574 130.063 52.431 134.552C51.1378 135.727 48.9075 136.989 46.5293 136.989ZM52.4968 119.653C50.6446 119.653 48.9787 121.2 48.9623 121.217C48.913 121.266 48.8582 121.316 48.7979 121.36C48.7869 121.37 47.0115 122.764 44.6058 125.969C43.4386 127.528 41.855 130.458 44.3921 132.643C45.0387 133.202 45.7402 133.477 46.5238 133.477C47.9979 133.477 49.4445 132.516 50.0637 131.951C55.4395 127.056 56.108 124.131 56.0313 122.825C55.971 121.848 55.4614 121.03 54.475 120.328C53.8448 119.872 53.1982 119.653 52.4968 119.653Z" fill="#652F71"/>
<path d="M57.1107 144.914C55.5928 144.914 54.1078 144.37 52.705 143.3C49.4061 140.792 49.2527 136.358 52.3214 132.264C54.6558 129.158 56.4696 127.621 56.8696 127.303C57.2971 126.913 59.1821 125.338 61.7248 125.338C63.2481 125.338 64.6619 125.893 65.9333 126.99C67.6978 128.516 68.6019 130.31 68.6293 132.335C68.6677 135.403 66.673 138.729 62.5248 142.51C60.7439 144.129 58.9739 144.914 57.1107 144.914ZM61.7248 128.862C60.3767 128.862 59.2314 129.91 59.2205 129.921C59.1766 129.959 59.1218 130.009 59.078 130.042C59.067 130.052 57.3957 131.364 55.127 134.382C54.4147 135.332 52.294 138.575 54.8257 140.501C56.6285 141.873 58.1957 141.692 60.1575 139.914C64.2838 136.155 65.1332 133.746 65.1113 132.39C65.1003 131.403 64.6126 130.513 63.6317 129.663C63.0125 129.12 62.3878 128.862 61.7248 128.862Z" fill="#652F71"/>
<path d="M35.9259 128.56C34.3916 128.56 32.9723 128.016 31.7174 126.941C28.572 124.257 28.4514 120.147 31.4105 116.206C33.7011 113.155 35.482 111.662 35.8492 111.366C36.2492 111.015 38.0082 109.594 40.5016 109.594C41.9318 109.594 43.3072 110.06 44.584 110.976C46.3211 112.217 47.302 113.902 47.4171 115.85C47.5979 118.939 45.5759 122.435 41.3948 126.238C40.6331 126.935 38.5617 128.56 35.9259 128.56ZM40.5016 113.106C39.1864 113.106 38.1781 113.995 38.1672 114.006C38.1343 114.039 38.085 114.077 38.0466 114.11C38.0356 114.116 36.4136 115.394 34.2162 118.319C33.1641 119.719 31.7448 122.347 33.9915 124.263C34.6053 124.79 35.2409 125.042 35.9259 125.042C37.0767 125.042 38.2877 124.312 39.033 123.632C43.4333 119.625 43.9758 117.161 43.91 116.053C43.8607 115.18 43.4113 114.456 42.5401 113.836C41.866 113.342 41.192 113.106 40.5016 113.106Z" fill="#652F71"/>
<path d="M65.9111 149.908C64.7384 149.908 63.5931 149.491 62.5191 148.668C59.7682 146.566 59.3901 143.152 61.5437 139.75C63.1547 137.198 64.448 135.908 64.7822 135.59C65.1658 135.184 66.744 133.675 69.0236 133.675C70.136 133.675 71.2046 134.031 72.2074 134.739C73.7363 135.815 74.635 137.253 74.8048 138.899C75.0624 141.391 73.6979 144.195 70.6292 147.477C70.0703 148.075 68.3551 149.908 65.9111 149.908ZM69.0236 137.192C68.1085 137.192 67.3523 137.988 67.3413 137.999C67.2975 138.048 67.2482 138.098 67.1988 138.142C67.1934 138.147 66.0262 139.234 64.5082 141.627C63.341 143.476 63.3849 144.897 64.6452 145.863C65.1055 146.214 65.5165 146.385 65.9056 146.385C66.8262 146.385 67.7523 145.391 68.0592 145.067C71.0731 141.846 71.3854 140.046 71.3032 139.256C71.2649 138.861 71.1005 138.262 70.1799 137.615C69.7853 137.33 69.4017 137.192 69.0236 137.192Z" fill="#652F71"/>
<path d="M79.1998 149.32C79.1669 149.32 79.134 149.32 79.1066 149.32C75.0844 149.255 72.1308 145.287 71.8075 144.837C71.243 144.047 71.4239 142.949 72.213 142.384C73.0021 141.819 74.098 142 74.6625 142.79C75.2652 143.624 77.2435 145.781 79.1669 145.808C80.1642 145.792 81.1615 145.21 82.1315 143.942C84.6083 140.699 77.4517 135.024 73.1774 131.633C72.5308 131.123 71.9335 130.645 71.402 130.206C70.6512 129.591 70.5416 128.483 71.1554 127.731C71.7691 126.979 72.876 126.869 73.6268 127.484C74.1419 127.907 74.7282 128.373 75.3584 128.873C80.9917 133.34 89.5018 140.084 84.9207 146.077C82.8767 148.744 80.7012 149.32 79.1998 149.32Z" fill="#652F71"/>
<path d="M87.9239 142.614C85.6059 142.614 83.4304 141.659 81.8467 139.848C81.2056 139.118 81.2823 138.004 82.0111 137.368C82.7399 136.726 83.8523 136.803 84.488 137.532C86.0552 139.322 88.2965 139.322 89.8692 138.729C91.3926 138.153 93.1735 136.665 93.1735 134.36C93.1023 132.412 85.5292 125.196 79.2986 120.525C78.5205 119.944 78.367 118.841 78.9479 118.061C79.5288 117.282 80.6302 117.128 81.4083 117.71C82.033 118.177 96.6861 129.24 96.6861 134.36C96.6861 137.736 94.4942 140.743 91.1076 142.022C90.0445 142.417 88.9705 142.614 87.9239 142.614Z" fill="#652F71"/>
<path d="M98.1821 135.897C96.319 135.897 94.5216 135.195 93.0695 133.784C92.3735 133.109 92.3571 131.995 93.0311 131.298C93.7051 130.601 94.8175 130.585 95.5135 131.26C97.6068 133.296 100.254 132.237 101.886 130.717C103.613 129.103 104.692 126.491 103.289 124.823C99.9247 120.822 86.5704 110.653 86.4389 110.548C85.6662 109.961 85.5128 108.858 86.0991 108.084C86.6855 107.311 87.7869 107.157 88.5596 107.744C89.124 108.172 102.363 118.254 105.974 122.556C108.802 125.926 107.262 130.508 104.281 133.29C102.424 135.025 100.264 135.897 98.1821 135.897Z" fill="#652F71"/>
<path d="M109.081 126.913C108.27 126.913 107.481 126.771 106.758 126.474C104.456 125.519 101.442 122.858 101.108 122.561C100.385 121.914 100.325 120.805 100.966 120.081C101.612 119.356 102.719 119.291 103.448 119.938C104.237 120.646 106.615 122.611 108.1 123.225C109.64 123.862 112.188 122.77 113.547 120.877C114.397 119.691 115.432 117.255 112.808 114.225C112.172 113.49 112.249 112.381 112.983 111.745C113.717 111.108 114.824 111.185 115.46 111.92C118.49 115.416 118.846 119.532 116.402 122.935C114.61 125.415 111.717 126.913 109.081 126.913Z" fill="#652F71"/>
<path d="M126.272 111.328C125.493 111.328 124.787 110.806 124.573 110.022L111.701 61.6127C111.454 60.6743 112.008 59.7084 112.945 59.4615L130.02 54.9065C130.469 54.7858 130.951 54.8516 131.351 55.0821C131.757 55.3181 132.047 55.7023 132.168 56.1523L145.04 104.561C145.161 105.011 145.095 105.494 144.865 105.895C144.629 106.301 144.245 106.592 143.796 106.712L126.721 111.267C126.573 111.306 126.42 111.328 126.272 111.328ZM115.553 62.4085L127.521 107.415L141.199 103.765L129.231 58.7535L115.553 62.4085Z" fill="#652F71"/>
<path d="M18.7629 111.355C18.604 111.355 18.4451 111.333 18.2862 111.289L1.28228 106.482C0.350707 106.218 -0.191795 105.247 0.0712367 104.309L13.6667 56.0974C13.9297 55.1644 14.8996 54.6156 15.8367 54.8846L32.8406 59.692C33.2899 59.8182 33.668 60.12 33.8982 60.5261C34.1283 60.9322 34.1831 61.4152 34.0571 61.8652L20.4617 110.076C20.2315 110.85 19.5246 111.355 18.7629 111.355ZM3.92355 103.573L17.5464 107.426L30.1883 62.6005L16.5655 58.748L3.92355 103.573Z" fill="#652F71"/>
<path d="M114.134 114.823C113.734 114.823 113.339 114.686 113.01 114.417L73.7857 81.7204C72.876 81.007 71.813 80.6448 70.58 80.6448C66.5249 80.6448 61.763 84.4918 58.9135 86.7857C58.3655 87.2248 57.8887 87.6144 57.4832 87.9163C55.1707 89.6614 50.1841 92.2627 45.9098 92.2627C42.4575 92.2627 40.6821 90.6053 39.7998 89.2114C35.131 81.8521 50.606 64.1042 56.3982 60.3505C58.76 58.8194 61.9109 58.073 66.0263 58.073C71.8294 58.073 78.7011 59.5163 85.9838 61.042C93.2665 62.5676 100.801 64.1536 107.081 64.1481C109.722 64.1481 111.931 63.8792 113.832 63.3194C114.287 63.1877 114.775 63.2426 115.186 63.4731C115.597 63.7036 115.898 64.0932 116.019 64.5542L127.022 106.065C127.241 106.893 126.83 107.766 126.047 108.117C123.773 109.149 117.422 112.266 115.35 114.308C115.027 114.653 114.583 114.823 114.134 114.823ZM70.5855 77.1325C72.6021 77.1325 74.4214 77.7581 75.9941 78.9874L114.128 110.773C116.769 108.765 121.049 106.619 123.263 105.56L113.076 67.139C111.29 67.5012 109.311 67.6768 107.087 67.6768C100.44 67.6768 92.724 66.0579 85.2659 64.4939C78.1696 63.0066 71.4677 61.5962 66.0317 61.5962C62.6123 61.5962 60.0861 62.156 58.3107 63.3085C51.8116 67.5177 40.2053 83.2954 42.7644 87.3345C42.9891 87.6858 43.6631 88.7504 45.9098 88.7504C49.1155 88.7504 53.3734 86.6211 55.368 85.1119C55.7461 84.8266 56.1955 84.4644 56.7106 84.0473C59.9217 81.4625 65.292 77.1325 70.5855 77.1325Z" fill="#652F71"/>
<path d="M143.188 141.368C132.343 143.437 130.491 145.814 128.875 159.687C128.825 160.104 128.359 160.104 128.31 159.687C126.694 145.808 124.841 143.437 113.997 141.368C113.674 141.308 113.674 140.71 113.997 140.65C124.841 138.581 126.694 136.204 128.31 122.331C128.359 121.914 128.825 121.914 128.875 122.331C130.491 136.21 132.343 138.581 143.188 140.65C143.517 140.71 143.517 141.308 143.188 141.368Z" fill="#A590C7"/>
<path d="M55.8502 42.8331C49.1264 44.1173 47.9757 45.5881 46.9729 54.1931C46.9455 54.4511 46.655 54.4511 46.6222 54.1931C45.6193 45.5881 44.4686 44.1173 37.7448 42.8331C37.5421 42.7947 37.5421 42.427 37.7448 42.3886C44.4686 41.1045 45.6193 39.6337 46.6222 31.0287C46.6496 30.7707 46.94 30.7707 46.9729 31.0287C47.9757 39.6337 49.1264 41.1045 55.8502 42.3886C56.0529 42.427 56.0529 42.7947 55.8502 42.8331Z" fill="#A590C7"/>
<path d="M161.874 10.2953C156.109 11.3984 155.123 12.6606 154.262 20.0418C154.235 20.2614 153.988 20.2614 153.961 20.0418C153.101 12.6606 152.114 11.3984 146.35 10.2953C146.18 10.2624 146.18 9.94409 146.35 9.91116C152.114 8.80809 153.101 7.54588 153.961 0.164637C153.988 -0.054879 154.235 -0.054879 154.262 0.164637C155.123 7.54588 156.109 8.80809 161.874 9.91116C162.044 9.94409 162.044 10.2624 161.874 10.2953Z" fill="#A590C7"/>
</g>
<defs>
<clipPath id="clip0_489_45">
<rect width="162" height="160" fill="white"/>
</clipPath>
</defs>
</svg>
