<svg width="203" height="141" viewBox="0 0 203 141" fill="none" xmlns="http://www.w3.org/2000/svg">
<g clip-path="url(#clip0_489_148)">
<path d="M78.8182 91.2203C102.704 91.2203 122.068 71.8567 122.068 47.9706C122.068 24.0845 102.704 4.72095 78.8182 4.72095C54.932 4.72095 35.5684 24.0845 35.5684 47.9706C35.5684 71.8567 54.932 91.2203 78.8182 91.2203Z" fill="white"/>
<path d="M82.8022 93.6935C106.103 93.6935 124.992 74.8045 124.992 51.5037C124.992 28.203 106.103 9.31396 82.8022 9.31396C59.5014 9.31396 40.6123 28.203 40.6123 51.5037C40.6123 74.8045 59.5014 93.6935 82.8022 93.6935Z" fill="#A590C7"/>
<path d="M29.8667 47.9706C29.8667 48.1899 29.8728 48.4092 29.8789 48.6224L29.8911 49.0366C29.9398 51.3331 30.153 53.6235 30.5246 55.8469C34.3805 79.0799 54.2754 95.9412 77.8374 95.9412C104.287 95.9412 125.808 74.4199 125.808 47.9706C125.808 22.9162 106.242 1.90664 81.2609 0.134013C79.9512 0.0426405 78.8669 0 77.8374 0C76.808 0 75.7237 0.0426405 74.4201 0.134013C49.4388 1.90664 29.8667 22.9162 29.8667 47.9706ZM75.5592 5.76256C76.3572 5.71992 77.1065 5.70165 77.8435 5.70165C79.336 5.70165 80.8832 5.78693 82.4365 5.95749C103.915 8.29053 120.113 26.3518 120.113 47.9767C120.113 71.2828 101.15 90.2456 77.8435 90.2456C57.8572 90.2456 40.4416 76.0463 36.4334 56.4743C35.9826 54.2753 35.7085 51.9788 35.6171 49.6518C35.5927 49.0975 35.5745 48.5371 35.5745 47.9767C35.5684 25.499 53.1363 6.96259 75.5592 5.76256Z" fill="#652F71"/>
<path d="M89.5029 56.6632C88.3333 56.6632 87.3891 57.6135 87.3891 58.783C87.4135 60.0501 86.9749 61.2866 86.1587 62.2674C84.6784 63.9852 82.4611 64.9233 80.2012 64.771C76.6254 64.6187 73.4761 62.3466 72.1908 58.9901L71.8862 58.1922H78.6904C79.86 58.1922 80.8042 57.2419 80.8042 56.0723C80.8042 54.9028 79.8539 53.9586 78.6904 53.9586H70.5644L70.4791 53.4773C70.1623 51.6621 69.9979 49.8103 69.9918 47.9706V47.3858H78.6904C79.86 47.3858 80.8042 46.4356 80.8042 45.2721C80.8042 44.1086 79.8539 43.1522 78.6904 43.1522H70.3633L70.4791 42.4639C71.6974 35.3978 75.3401 31.1764 80.2133 31.1642C82.4672 31.0302 84.6784 31.9561 86.1465 33.6617C86.9688 34.6485 87.4074 35.8912 87.383 37.1643C87.383 38.3217 88.3333 39.272 89.4968 39.272C90.6664 39.272 91.6167 38.3217 91.6167 37.1582C91.641 34.9714 90.9039 32.8332 89.5334 31.1337C87.2917 28.356 83.8317 26.7783 80.256 26.9367C74.4447 26.9367 67.6953 31.0667 66.1054 42.6466L66.0384 43.1522H62.4687C61.2992 43.1522 60.355 44.1025 60.355 45.2721C60.355 46.4417 61.3053 47.3858 62.4687 47.3858H65.7582V47.9706C65.7521 49.7432 65.8739 51.5341 66.1054 53.2946L66.1967 53.9586H62.4687C61.2992 53.9586 60.355 54.9088 60.355 56.0723C60.355 57.2358 61.3053 58.1922 62.4687 58.1922H67.2932L67.4029 58.6307C68.9075 64.509 74.1888 68.7731 80.2499 69.0046C83.8134 69.1629 87.2917 67.5853 89.5334 64.8014C90.8979 63.1019 91.6349 60.9638 91.6106 58.783C91.6167 57.6135 90.6664 56.6632 89.5029 56.6632Z" fill="#652F71"/>
<path d="M159.33 29.6048C158.641 29.5439 158.112 28.9591 158.13 28.2646C158.568 14.3212 147.957 2.36358 133.904 1.2732C130.237 0.986903 126.545 1.48031 123.079 2.7108C121.733 3.19203 121.032 4.67226 121.514 6.01848C121.995 7.3647 123.475 8.06523 124.821 7.584C127.684 6.55453 130.742 6.16468 133.776 6.45098C144.802 7.37079 153.123 16.6725 152.982 27.5763C152.97 28.3499 152.3 28.9469 151.533 28.8738L145.423 28.3073C144.308 28.2037 143.577 29.4464 144.211 30.3723L153.159 43.3838C153.628 44.066 154.597 44.1513 155.182 43.5726L166.366 32.4251C167.157 31.6332 166.67 30.2748 165.555 30.1713L159.33 29.6048Z" fill="#652F71"/>
<path d="M39.6742 111.901C40.3626 111.974 40.8804 112.565 40.8438 113.253C40.1677 127.191 50.572 139.331 64.6068 140.653C68.2739 141 71.9654 140.574 75.4559 139.398C76.8082 138.941 77.5392 137.473 77.0762 136.121C76.6193 134.768 75.1513 134.037 73.799 134.5C70.9177 135.481 67.8536 135.816 64.8261 135.481C53.8127 134.379 45.65 124.931 45.9851 114.027C46.0094 113.259 46.6856 112.668 47.4531 112.754L53.5629 113.424C54.6716 113.546 55.4208 112.315 54.8056 111.383L46.0764 98.2072C45.6196 97.5188 44.6571 97.4153 44.0601 97.9879L32.6751 108.953C31.871 109.726 32.334 111.091 33.4487 111.213L39.6742 111.901Z" fill="#652F71"/>
<path d="M123.554 136.937C147.441 136.937 166.804 117.574 166.804 93.6874C166.804 69.8013 147.441 50.4377 123.554 50.4377C99.6683 50.4377 80.3047 69.8013 80.3047 93.6874C80.3047 117.574 99.6683 136.937 123.554 136.937Z" fill="white"/>
<path d="M125.839 136.943C148.467 136.943 166.81 118.6 166.81 95.9717C166.81 73.3438 148.467 55.0002 125.839 55.0002C103.211 55.0002 84.8672 73.3438 84.8672 95.9717C84.8672 118.6 103.211 136.943 125.839 136.943Z" fill="#A590C7"/>
<path d="M75.2607 93.0294C75.2607 93.2487 75.2668 93.468 75.2729 93.6812L75.2851 94.0954C75.3338 96.3919 75.547 98.6823 75.9186 100.906C79.7746 124.139 99.6695 141 123.231 141C149.681 141 171.202 119.479 171.202 93.0294C171.202 67.9751 151.636 46.9655 126.655 45.1929C125.345 45.1015 124.261 45.0588 123.231 45.0588C122.202 45.0588 121.118 45.1015 119.814 45.1929C94.8267 46.9655 75.2607 67.9751 75.2607 93.0294ZM120.947 50.8275C121.745 50.7849 122.494 50.7666 123.231 50.7666C124.724 50.7666 126.271 50.8519 127.824 51.0224C149.303 53.3555 165.501 71.4168 165.501 93.0416C165.501 116.348 146.538 135.311 123.231 135.311C103.245 135.311 85.8295 121.111 81.8213 101.539C81.3705 99.3402 81.0964 97.0437 81.005 94.7168C80.9807 94.1624 80.9624 93.602 80.9624 93.0416C80.9624 70.564 98.5243 52.0214 120.947 50.8275Z" fill="#652F71"/>
<path d="M125.455 117.53C125.528 117.53 125.601 117.523 125.674 117.511C126.667 117.383 127.404 116.531 127.392 115.525L127.337 112.303L127.776 112.242C135.567 111.14 141.116 105.919 140.409 100.364C139.618 94.1808 133.782 92.2437 127.355 90.666L126.978 90.5746L126.77 78.1114L127.307 78.1358C129.335 78.2333 131.144 79.5125 131.918 81.3887L131.948 81.5166C132.015 82.0405 132.283 82.5034 132.698 82.8263C133.112 83.1491 133.636 83.2892 134.153 83.2222C135.232 83.0821 135.993 82.0953 135.859 81.0171C134.89 77.0576 131.321 74.1946 127.191 74.1154L126.71 74.1032L126.655 70.7955C126.636 69.7112 125.741 68.8402 124.657 68.8584H124.651C124.651 68.8584 124.651 68.8584 124.645 68.8584C123.566 68.9072 122.72 69.7843 122.72 70.8686L122.774 74.0849L122.336 74.1459C115.239 75.151 110.945 79.4942 111.639 84.9522C112.273 89.8863 116.525 91.9635 122.726 93.5717L123.097 93.6691L123.335 108.356L122.829 108.362C119.771 108.386 117 106.48 115.934 103.617L115.909 103.507C115.842 102.983 115.574 102.52 115.16 102.197C114.788 101.911 114.332 101.765 113.869 101.789C113.814 101.789 113.759 101.795 113.704 101.801C113.18 101.868 112.717 102.136 112.395 102.551C112.072 102.965 111.932 103.483 111.999 104.006C113.235 108.977 117.719 112.425 122.896 112.34L123.396 112.333L123.451 115.611C123.475 116.677 124.37 117.548 125.455 117.53ZM127.051 94.6377L127.69 94.8082C132.959 96.2032 136.091 97.6347 136.505 100.857C136.901 103.97 133.026 107.271 127.861 108.228L127.276 108.337L127.051 94.6377ZM122.379 89.3807C118.516 88.2721 115.873 87.005 115.55 84.4405C114.983 79.9876 120.052 78.5439 122.257 78.1297L122.841 78.0201L123.03 89.5695L122.379 89.3807Z" fill="#652F71"/>
<path d="M29.623 92.5847C18.7131 94.668 16.843 97.0498 15.2166 110.993C15.1678 111.407 14.6988 111.407 14.6501 110.993C13.0236 97.0498 11.1535 94.6619 0.243603 92.5847C-0.0792479 92.5238 -0.0792479 91.9207 0.243603 91.8598C11.1535 89.7765 13.0236 87.3947 14.6501 73.4513C14.6988 73.0371 15.1678 73.0371 15.2166 73.4513C16.843 87.3947 18.7131 89.7826 29.623 91.8598C29.952 91.9268 29.952 92.5238 29.623 92.5847Z" fill="#A590C7"/>
<path d="M195.69 61.8837C186.065 63.7233 184.421 65.8249 182.983 78.1236C182.941 78.4891 182.526 78.4891 182.484 78.1236C181.046 65.8188 179.401 63.7172 169.777 61.8837C169.49 61.8288 169.49 61.2989 169.777 61.244C179.401 59.4044 181.046 57.3028 182.484 45.0041C182.526 44.6386 182.941 44.6386 182.983 45.0041C184.421 57.3089 186.065 59.4105 195.69 61.244C195.976 61.2989 195.976 61.8288 195.69 61.8837Z" fill="#A590C7"/>
<path d="M202.854 33.6007C196.366 34.8372 195.258 36.2566 194.289 44.5471C194.259 44.7968 193.978 44.7968 193.954 44.5471C192.985 36.2566 191.877 34.8372 185.389 33.6007C185.194 33.5641 185.194 33.2047 185.389 33.1682C191.877 31.9316 192.985 30.5123 193.954 22.2217C193.985 21.972 194.265 21.972 194.289 22.2217C195.258 30.5123 196.366 31.9316 202.854 33.1682C203.049 33.2047 203.049 33.5641 202.854 33.6007Z" fill="#A590C7"/>
</g>
<defs>
<clipPath id="clip0_489_148">
<rect width="203" height="141" fill="white"/>
</clipPath>
</defs>
</svg>
