<svg width="1440" height="598" viewBox="0 0 1440 598" fill="none" xmlns="http://www.w3.org/2000/svg">
<g clip-path="url(#clip0_489_180)">
<path fill-rule="evenodd" clip-rule="evenodd" d="M1446 699V355L1381.74 361.341L1341.96 356.585L1294.53 359.756L1219.57 370.853L1153.78 380.365H1112.47L1013.02 375.609L968.652 381.951L892.154 380.365L826.366 370.853L719.269 375.609L655.01 394.633L554.033 397.804L512.724 388.292L425.516 386.707L336.779 393.048L292.41 381.951L200.612 380.365L168.483 372.439L95.0454 378.78L32.317 383.536L-8 385.121V699H719.269H1446Z" fill="#D6A5DB"/>
<path fill-rule="evenodd" clip-rule="evenodd" d="M-8 702V374L56.2583 380.121L96.0373 375.53L143.466 378.591L218.434 389.302L284.222 398.483H325.531L424.979 393.893L469.348 400.013L545.846 398.483L611.634 389.302L718.731 393.893L782.989 412.255L883.967 415.315L925.276 406.134L1012.48 404.604L1101.22 410.725L1145.59 400.013L1237.39 398.483L1269.52 390.832L1342.95 396.953L1405.68 401.543L1446 403.074V702H709.5H-8Z" fill="#C194CD"/>
<path fill-rule="evenodd" clip-rule="evenodd" d="M-8 697.5V415.382L8.82956 416.912L18.7743 423.033L37.1338 420.738L57.7883 419.973L69.263 425.329L89.1525 426.859L106.747 426.094L126.636 419.973L161.826 422.268L191.66 429.919L221.494 440.63L242.148 451.342L249.033 462.818L264.333 458.993L294.932 450.577L317.117 457.463L337.771 443.691L356.131 430.684L384.435 439.1L407.384 430.684L423.449 416.912L446.398 419.973L467.818 424.563L473.937 410.792L490.767 404.671L509.891 409.262L529.781 411.557L542.786 423.798L568.03 422.268L938.28 446.751L955.11 439.1L976.529 440.63L987.239 432.98L1005.6 418.443L1031.61 425.329L1050.73 436.04L1084.39 439.1L1111.17 434.51L1124.17 443.691L1146.35 423.033L1165.48 424.563L1181.54 419.208L1205.26 417.678L1210.61 424.563L1237.39 428.389L1258.81 426.094L1274.11 437.57L1323.07 433.745L1339.13 425.329L1347.54 412.322L1362.08 400.08L1376.61 380.953L1385.79 374.067L1392.68 362.591L1404.92 358L1416.39 371.007L1428.63 373.302L1446 384.778V697.5H714H-8Z" fill="#F0B9EC"/>
<path fill-rule="evenodd" clip-rule="evenodd" d="M-8 699V415.382L8.82956 416.912L18.7743 423.033L37.1338 420.738L57.7883 419.973L69.263 425.329L89.1525 426.859L106.747 426.094L126.636 419.973L161.826 422.268L191.66 429.919L221.494 440.63L242.148 451.342L249.033 462.818L264.333 458.993L294.932 450.577L317.117 457.463L337.771 443.691L356.131 430.684L384.435 439.1L407.384 430.684L423.449 416.912L446.398 419.973L467.818 424.563L473.937 410.792L490.767 404.671L509.891 409.262L529.781 411.557L542.786 423.798L568.03 422.268L938.28 446.751L955.11 439.1L976.529 440.63L987.239 432.98L1005.6 418.443L1031.61 425.329L1050.73 436.04L1084.39 439.1L1111.17 434.51L1124.17 443.691L1146.35 423.033L1165.48 424.563L1181.54 419.208L1205.26 417.678L1210.61 424.563L1237.39 428.389L1258.81 426.094L1274.11 437.57L1323.07 433.745L1366.72 436.419L1364.31 426.118L1367.49 411.441L1391.76 406.651L1389.85 391.379L1400.79 380.173L1404.92 358L1416.39 371.007L1428.63 373.302L1446 384.778V699H698.5H-8Z" fill="#B78ACA"/>
<path fill-rule="evenodd" clip-rule="evenodd" d="M19 700.5V538.339L74.1741 539.421L110.957 550.241L148.821 548.077L193.177 539.421L257.006 545.913L276.033 554.69L302.043 556.986L348.706 550.1L382.366 517.201L404.55 509.55H441.269L465.748 495.778L510.117 491.187L540.716 477.416L572.846 454.463L586.615 431.51L606.505 434.57L626.394 429.979L644.754 419.268L676.883 396.315L696.772 390.194L722.782 388.664L741.141 362.651L764.091 355L787.04 361.121L799.28 374.893L822.229 382.543L843.366 397.678L853.103 414.99L869.33 417.154L892.049 423.646L897.458 432.302L918.013 436.63L955.878 448.532L968.86 472.336L981.842 478.828L990.497 488.566L1005.64 484.238L1016.46 491.812L1035.93 483.156L1051.08 486.402L1062.98 495.058L1072.72 505.879L1082.45 519.945L1115.99 530.765L1153.86 532.929L1172.25 526.437L1202.54 512.371L1231.75 510.207L1246.89 496.14H1271.78L1288 506.961L1324.79 502.633L1350.75 509.125L1368.06 521.027L1401.6 526.437L1425.4 536.175L1447.04 529.683L1473 530.765V700.5H741.141H19Z" fill="#F3B6EF"/>
<path fill-rule="evenodd" clip-rule="evenodd" d="M19 700.5V538.339L74.1741 539.421L181.779 583.188L173.688 559.291L193.177 539.421L257.006 545.913L300.468 585.025L314.2 578.888L378.78 583.031L523.957 625.585L604.223 629.727L633.609 619.572L625.502 589.734L598.107 570.722L627.686 559.268L633.434 552.042L668.105 543.742L693.148 505.996L712.612 497.743L716.027 461.752L742.878 456.735L732.028 433.674L746.988 428.465L748.602 406.409L773.042 390.735L758.243 387.041L756.418 367.203L764.091 355L787.04 361.121L799.28 374.893L822.229 382.543L843.366 397.678L853.103 414.99L869.33 417.154L892.049 423.646L897.458 432.302L918.013 436.63L955.878 448.532L968.86 472.336L981.842 478.828L990.497 488.566L1005.64 484.238L1023.08 495.19L1035.93 483.156L1051.08 486.402L1062.98 495.058L1072.72 505.879L1082.45 519.945L1115.99 530.765L1153.86 532.929L1178.2 526.978L1202.54 512.371L1245.33 519.579L1252.25 499.966L1271.78 496.14L1288 506.961L1324.79 502.633L1350.75 509.125L1368.06 521.027L1401.6 526.437L1435.3 539.552L1447.04 529.683L1473 530.765V700.5H746.988H19Z" fill="#A87BC3"/>
<path fill-rule="evenodd" clip-rule="evenodd" d="M-12 700.5V471.757H31.2738L65.8929 478.249L112.412 510.709L163.259 504.217L230.333 478.249L309.308 440.378L375.301 447.952L445.621 450.117L562.46 476.085L591.67 499.889L625.207 510.709L687.954 508.545L719.327 516.119L758.274 511.791L823.184 522.611L876.195 516.119L901.077 534.513L914.059 532.349L936.778 521.529L943.269 503.135L965.988 494.479L994.116 491.233L1023.33 496.643L1083.91 487.987L1167.21 483.659L1233.2 494.479L1273.23 491.233L1320.83 504.217L1347.88 517.201L1373.84 537.759L1403.05 559.4L1442 550.743V700.5H719.327H-12Z" fill="#826FBC"/>
<path fill-rule="evenodd" clip-rule="evenodd" d="M-8 701V583.641L41.7649 592.145L130.476 595.547L232.17 578.538L277.607 600.65L325.208 604.051L386.874 564.081L515.613 544.521L576.196 553.026L628.125 564.932L744.964 553.026L816.366 559.829L881.277 578.538L928.878 559.829L985.134 546.222L1063.03 522.41H1127.94L1158.23 503.701L1212.32 502L1283.72 525.812L1350.8 536.017L1446 544.521V701H-8Z" fill="#635F98"/>
<path fill-rule="evenodd" clip-rule="evenodd" d="M-8 701V491L19.0461 497.563L43.9286 507.406L83.9568 516.43H108.839L158.604 523.812L224.597 531.195L250.561 545.961L270.034 560.727L294.917 566.469L344.682 562.367L386.874 568.93L432.311 581.234L464.766 595.18L508.04 600.102L558.887 602.563L593.506 612.406L619.47 614.867L633.534 624.711L696.281 636.195L712.509 649.32L743.882 659.164L779.583 668.188L805.548 677.211L838.003 681.312L863.967 701H979.725H1240.45L1292.38 682.953L1354.04 670.648L1384.33 647.68L1446 632.914V701H-8Z" fill="#3F416B"/>
<path opacity="0.564" d="M1382.6 26.0093C1383.46 26.0093 1384.16 25.3122 1384.16 24.4523C1384.16 23.5924 1383.46 22.8953 1382.6 22.8953C1381.74 22.8953 1381.05 23.5924 1381.05 24.4523C1381.05 25.3122 1381.74 26.0093 1382.6 26.0093Z" fill="#FFF3F2"/>
<path opacity="0.564" d="M1346.12 55.1757C1346.69 55.1757 1347.15 54.7147 1347.15 54.1461C1347.15 53.5774 1346.69 53.1165 1346.12 53.1165C1345.55 53.1165 1345.09 53.5774 1345.09 54.1461C1345.09 54.7147 1345.55 55.1757 1346.12 55.1757Z" fill="#FFF3F2"/>
<path opacity="0.564" d="M1412.11 110.899C1412.68 110.899 1413.14 110.438 1413.14 109.87C1413.14 109.301 1412.68 108.84 1412.11 108.84C1411.55 108.84 1411.09 109.301 1411.09 109.87C1411.09 110.438 1411.55 110.899 1412.11 110.899Z" fill="#FFF3F2"/>
<path opacity="0.564" d="M1221.71 55.7167C1222.28 55.7167 1222.74 55.2558 1222.74 54.6871C1222.74 54.1185 1222.28 53.6575 1221.71 53.6575C1221.14 53.6575 1220.68 54.1185 1220.68 54.6871C1220.68 55.2558 1221.14 55.7167 1221.71 55.7167Z" fill="#FFF3F2"/>
<path opacity="0.564" d="M1102.98 78.7097C1103.55 78.7097 1104.01 78.2487 1104.01 77.68C1104.01 77.1114 1103.55 76.6504 1102.98 76.6504C1102.41 76.6504 1101.95 77.1114 1101.95 77.68C1101.95 78.2487 1102.41 78.7097 1102.98 78.7097Z" fill="#FFF3F2"/>
<path opacity="0.564" d="M1425.61 15.1893C1426.47 15.1893 1427.16 14.4922 1427.16 13.6322C1427.16 12.7723 1426.47 12.0752 1425.61 12.0752C1424.75 12.0752 1424.05 12.7723 1424.05 13.6322C1424.05 14.4922 1424.75 15.1893 1425.61 15.1893Z" fill="#FFF3F2"/>
<path opacity="0.564" d="M1234.39 18.9761C1235.25 18.9761 1235.95 18.279 1235.95 17.4191C1235.95 16.5592 1235.25 15.8621 1234.39 15.8621C1233.53 15.8621 1232.83 16.5592 1232.83 17.4191C1232.83 18.279 1233.53 18.9761 1234.39 18.9761Z" fill="#FFF3F2"/>
<path opacity="0.564" d="M1164.88 38.723C1165.74 38.723 1166.44 38.0259 1166.44 37.1659C1166.44 36.306 1165.74 35.6089 1164.88 35.6089C1164.02 35.6089 1163.33 36.306 1163.33 37.1659C1163.33 38.0259 1164.02 38.723 1164.88 38.723Z" fill="#FFF3F2"/>
<path opacity="0.564" d="M1022.92 38.6752C1023.49 38.6752 1023.95 38.2143 1023.95 37.6456C1023.95 37.0769 1023.49 36.616 1022.92 36.616C1022.35 36.616 1021.89 37.0769 1021.89 37.6456C1021.89 38.2143 1022.35 38.6752 1022.92 38.6752Z" fill="#FFF3F2"/>
<path opacity="0.564" d="M919.605 10.8134C920.173 10.8134 920.634 10.3524 920.634 9.78379C920.634 9.21513 920.173 8.75415 919.605 8.75415C919.036 8.75415 918.575 9.21513 918.575 9.78379C918.575 10.3524 919.036 10.8134 919.605 10.8134Z" fill="#FFF3F2"/>
<path opacity="0.564" d="M814.396 10.2724C814.964 10.2724 815.425 9.81142 815.425 9.24277C815.425 8.67412 814.964 8.21313 814.396 8.21313C813.827 8.21313 813.366 8.67412 813.366 9.24277C813.366 9.81142 813.827 10.2724 814.396 10.2724Z" fill="#FFF3F2"/>
<path opacity="0.564" d="M717.57 45.1672C718.139 45.1672 718.6 44.7062 718.6 44.1375C718.6 43.5689 718.139 43.1079 717.57 43.1079C717.002 43.1079 716.541 43.5689 716.541 44.1375C716.541 44.7062 717.002 45.1672 717.57 45.1672Z" fill="#FFF3F2"/>
<path opacity="0.564" d="M690.795 22.7155C691.363 22.7155 691.824 22.2545 691.824 21.6859C691.824 21.1172 691.363 20.6562 690.795 20.6562C690.226 20.6562 689.765 21.1172 689.765 21.6859C689.765 22.2545 690.226 22.7155 690.795 22.7155Z" fill="#FFF3F2"/>
<path opacity="0.564" d="M558.269 24.3386C558.837 24.3386 559.298 23.8776 559.298 23.3089C559.298 22.7403 558.837 22.2793 558.269 22.2793C557.7 22.2793 557.239 22.7403 557.239 23.3089C557.239 23.8776 557.7 24.3386 558.269 24.3386Z" fill="#FFF3F2"/>
<path opacity="0.564" d="M523.92 35.9702C524.489 35.9702 524.95 35.5092 524.95 34.9405C524.95 34.3719 524.489 33.9109 523.92 33.9109C523.352 33.9109 522.891 34.3719 522.891 34.9405C522.891 35.5092 523.352 35.9702 523.92 35.9702Z" fill="#FFF3F2"/>
<path opacity="0.564" d="M1377.19 106.078C1378.05 106.078 1378.75 105.381 1378.75 104.521C1378.75 103.661 1378.05 102.964 1377.19 102.964C1376.33 102.964 1375.64 103.661 1375.64 104.521C1375.64 105.381 1376.33 106.078 1377.19 106.078Z" fill="#FFF3F2"/>
<path opacity="0.564" d="M1410.19 72.5357C1411.05 72.5357 1411.75 71.8386 1411.75 70.9787C1411.75 70.1188 1411.05 69.4216 1410.19 69.4216C1409.33 69.4216 1408.63 70.1188 1408.63 70.9787C1408.63 71.8386 1409.33 72.5357 1410.19 72.5357Z" fill="#FFF3F2"/>
<path opacity="0.564" d="M1290.11 50.8956C1290.97 50.8956 1291.66 50.1985 1291.66 49.3385C1291.66 48.4786 1290.97 47.7815 1290.11 47.7815C1289.25 47.7815 1288.55 48.4786 1288.55 49.3385C1288.55 50.1985 1289.25 50.8956 1290.11 50.8956Z" fill="#FFF3F2"/>
</g>
<defs>
<clipPath id="clip0_489_180">
<rect width="1454" height="818" fill="white" transform="translate(-12)"/>
</clipPath>
</defs>
</svg>
