<?xml version="1.0" encoding="iso-8859-1"?>
<!-- Generator: Adobe Illustrator 19.0.0, SVG Export Plug-In . SVG Version: 6.00 Build 0)  -->
<svg version="1.1" id="Layer_1" xmlns="http://www.w3.org/2000/svg" xmlns:xlink="http://www.w3.org/1999/xlink" x="0px" y="0px"
	 viewBox="0 0 512 512" style="enable-background:new 0 0 512 512;" xml:space="preserve">
<path style="fill:#06344C;" d="M333.091,12.982v145.502h29.729V12.982C362.82,6.684,333.091,6.684,333.091,12.982z"/>
<g>
	<path style="fill:#FF385C;" d="M149.196,488.327c0,8.513,6.899,15.415,15.411,15.415h182.787c8.511,0,15.411-6.902,15.411-15.415
		V324.999l-106.789-22.022l-106.82,22.022V488.327z"/>
	<path style="fill:#FF385C;" d="M362.791,110.109c0-26.737-21.77-47.347-106.804-47.347s-106.804,20.61-106.804,47.347v33.214
		l106.819,22.021l106.79-22.021V110.109z"/>
</g>
<rect x="149.185" y="143.316" style="fill:#0A547B;" width="213.609" height="181.677"/>
<path style="fill:#021729;" d="M347.957,0c-20.882,0-23.137,9.077-23.137,12.981v33.16c0,4.562,3.696,8.258,8.258,8.258
	c4.561,0,8.258-3.696,8.258-8.258V17.026c3.613-0.671,9.628-0.671,13.24,0v58.287c-22.669-18.063-64.493-20.809-98.576-20.809
	c-49.407,0-115.093,5.764-115.093,55.605v378.218c0,13.053,10.62,23.673,23.673,23.673H347.42c13.053,0,23.673-10.62,23.673-23.673
	V158.484v-48.376V12.981C371.094,9.077,368.839,0,347.957,0z M256.001,71.019c98.576,0,98.576,28.399,98.576,39.089v24.844H157.423
	v-24.844C157.423,99.418,157.423,71.019,256.001,71.019z M157.423,151.468h197.153v7.015v158.369H157.423V151.468z M347.421,495.484
	H164.58c-3.946,0-7.157-3.211-7.157-7.157V333.369h197.153v154.958C354.578,492.273,351.367,495.484,347.421,495.484z"/>
<g>
</g>
<g>
</g>
<g>
</g>
<g>
</g>
<g>
</g>
<g>
</g>
<g>
</g>
<g>
</g>
<g>
</g>
<g>
</g>
<g>
</g>
<g>
</g>
<g>
</g>
<g>
</g>
<g>
</g>
</svg>
